<?xml version="1.0" encoding="iso-8859-1"?>
<!-- Generator: Adobe Illustrator 19.0.0, SVG Export Plug-In . SVG Version: 6.00 Build 0)  -->
<svg version="1.1" id="Capa_1" xmlns="http://www.w3.org/2000/svg" xmlns:xlink="http://www.w3.org/1999/xlink" x="0px" y="0px"
	 viewBox="0 0 409.6 409.6" style="enable-background:new 0 0 409.6 409.6;" xml:space="preserve">
<path style="fill:#E56353;" d="M204.528,52.657c-67.454,0-122.138,54.683-122.138,122.14v134.805h244.279V174.796
	C326.669,107.34,271.986,52.657,204.528,52.657z"/>
<path style="fill:#64798A;" d="M340.538,309.602H68.519c-11.287,0-20.438,9.15-20.438,20.439v26.903h312.895v-26.903
	C360.977,318.753,351.826,309.602,340.538,309.602z"/>
<path style="fill:#D15241;" d="M255.97,204.815c0-34.335-23.031-62.169-51.441-62.169c-28.411,0-51.442,27.834-51.442,62.169
	c0,27.602,14.889,50.989,35.486,59.106v45.681h31.91v-45.681C241.081,255.804,255.97,232.417,255.97,204.815z"/>
<g>
	<path style="fill:#E56353;" d="M353.727,126.438c1.185,0,2.383-0.308,3.473-0.959l45.458-23.898
		c3.217-1.922,4.27-6.086,2.348-9.303c-1.919-3.218-6.088-4.271-9.304-2.349l-45.457,23.899c-3.218,1.921-4.271,6.085-2.349,9.303
		C349.166,125.259,351.419,126.438,353.727,126.438z"/>
	<path style="fill:#E56353;" d="M402.658,250.097L357.2,226.2c-3.213-1.922-7.382-0.872-9.304,2.348
		c-1.922,3.218-0.869,7.382,2.349,9.304l45.457,23.898c1.09,0.652,2.288,0.96,3.472,0.96c2.309,0,4.561-1.18,5.831-3.308
		C406.928,256.183,405.876,252.019,402.658,250.097z"/>
	<path style="fill:#E56353;" d="M402.815,173.206h-49.093c-3.747,0-6.785,3.038-6.785,6.786c0,3.747,3.038,6.786,6.785,6.786h49.093
		c3.747,0,6.785-3.038,6.785-6.786C409.6,176.243,406.562,173.206,402.815,173.206z"/>
	<path style="fill:#E56353;" d="M55.873,126.438c-1.185,0-2.383-0.308-3.473-0.959L6.942,101.581
		c-3.217-1.922-4.27-6.086-2.348-9.303c1.919-3.218,6.088-4.271,9.304-2.349l45.458,23.899c3.218,1.921,4.27,6.085,2.349,9.303
		C60.434,125.259,58.181,126.438,55.873,126.438z"/>
	<path style="fill:#E56353;" d="M6.942,250.097L52.4,226.2c3.213-1.922,7.382-0.872,9.304,2.348
		c1.921,3.218,0.869,7.382-2.349,9.304l-45.458,23.898c-1.089,0.652-2.288,0.96-3.472,0.96c-2.309,0-4.561-1.18-5.831-3.308
		C2.672,256.183,3.724,252.019,6.942,250.097z"/>
	<path style="fill:#E56353;" d="M6.786,173.206h49.092c3.747,0,6.786,3.038,6.786,6.786c0,3.747-3.038,6.786-6.786,6.786H6.786
		c-3.748,0-6.786-3.038-6.786-6.786C0,176.243,3.038,173.206,6.786,173.206z"/>
</g>
<g>
</g>
<g>
</g>
<g>
</g>
<g>
</g>
<g>
</g>
<g>
</g>
<g>
</g>
<g>
</g>
<g>
</g>
<g>
</g>
<g>
</g>
<g>
</g>
<g>
</g>
<g>
</g>
<g>
</g>
</svg>
