<?xml version="1.0" encoding="utf-8"?>
<!-- Generator: Adobe Illustrator 21.0.2, SVG Export Plug-In . SVG Version: 6.00 Build 0)  -->
<svg version="1.1" id="Layer_1" xmlns="http://www.w3.org/2000/svg" xmlns:xlink="http://www.w3.org/1999/xlink" x="0px" y="0px"
	 viewBox="0 0 306.9 207.1" style="enable-background:new 0 0 306.9 207.1;" xml:space="preserve">
<style type="text/css">
	.st0{enable-background:new    ;}
	.st1{fill:#FFFFFF;}
</style>
<title>Asset 2</title>
<g id="Layer_2">
	<g id="Layer_1-2">
		<g class="st0">
			<path class="st1" d="M5.5,107.6V94.7c0-9.9,2.9-17.8,8.7-23.9c5.8-6,14.5-9.1,26-9.1c7.3,0,13.4,1.3,18.3,3.9
				c4.9,2.6,7.4,5.5,7.4,8.7c0,2.2-0.8,4.5-2.4,6.7c-1.6,2.2-3.5,3.4-5.8,3.4c-0.6,0-2.5-0.7-5.7-2.2c-3.2-1.4-6.6-2.2-10.2-2.2
				c-10.4,0-15.6,4.9-15.6,14.7v12.8c0,9.8,5.2,14.7,15.7,14.7c3.6,0,7-0.8,10.1-2.3c3.1-1.6,5.1-2.3,5.9-2.3c2.6,0,4.7,1.1,6.3,3.2
				c1.7,2.1,2.5,4.3,2.5,6.6c0,3.3-2.6,6.3-7.8,9.1c-5.2,2.7-11.4,4.1-18.7,4.1c-11.7,0-20.4-3-26.2-9
				C8.4,125.5,5.5,117.5,5.5,107.6z"/>
			<path class="st1" d="M73.3,118.5c0-8.4,3.2-14.4,9.6-17.8c6.4-3.4,15.7-5.2,27.8-5.2h6.6v-2.1c0-4.1-1.2-7.6-3.5-10.7
				c-2.3-3-5.9-4.5-10.7-4.5c-4.8,0-8.9,0.9-12.4,2.7c-3.4,1.8-5.4,2.7-5.9,2.7c-2.1,0-3.9-1.1-5.1-3.2c-1.3-2.1-1.9-4.5-1.9-7.1
				c0-3.1,2.8-5.8,8.3-8.1c5.5-2.3,11.3-3.5,17.4-3.5c11.7,0,20.3,3,26,8.9c5.7,5.9,8.5,13.4,8.5,22.4v39.4c0,1.8-1,3.4-2.9,4.7
				c-1.9,1.3-4.3,1.9-7.2,1.9c-2.7,0-4.9-0.7-6.7-2.1c-1.8-1.4-2.7-3-2.7-5v-5c-7.4,9-15.5,13.5-24.4,13.5c-6.1,0-11.1-1.9-15-5.6
				C75.2,131.1,73.3,125.6,73.3,118.5z M94,115.9c0,2.7,0.8,4.8,2.3,6.2c1.6,1.4,3.6,2.1,6.2,2.1c3.4,0,6.7-1.5,10-4.6
				c3.2-3,4.8-6.4,4.8-10.1v-3.2h-2.4c-6.5,0-11.6,0.6-15.3,1.9C95.8,109.4,94,112,94,115.9z"/>
			<path class="st1" d="M150.7,107.6V94.4c0-8.9,2.8-16.5,8.4-23c5.6-6.4,12.3-9.6,20.2-9.6c4.7,0,8.9,1.2,12.5,3.6
				c3.6,2.4,6.3,5.3,8.3,8.8V24.8c0-1.9,1-3.5,3-4.7c2-1.2,4.5-1.8,7.5-1.8c3,0,5.5,0.6,7.4,1.8c1.9,1.2,2.9,2.7,2.9,4.7v107.7
				c0,1.7-1,3.2-3,4.6c-2,1.3-4.4,2-7.3,2c-2.5,0-4.6-0.7-6.5-2.1c-1.9-1.4-2.8-2.9-2.8-4.5v-4.7c-1.7,3.5-4.6,6.5-8.8,9
				c-4.1,2.5-8.6,3.8-13.6,3.8c-7.4,0-13.9-3.3-19.6-10C153.5,123.9,150.7,116.2,150.7,107.6z M171.4,107.5c0,3.7,1.4,7.1,4.2,10.1
				c2.8,3,6,4.5,9.8,4.5c3.7,0,7.1-1.5,10.1-4.4c3-2.9,4.5-5.4,4.5-7.4V94.4c0-4.2-1.5-7.7-4.4-10.4c-2.9-2.7-6.3-4-10-4
				c-3.9,0-7.2,1.5-10,4.4c-2.8,2.9-4.2,6.2-4.2,10V107.5z"/>
			<path class="st1" d="M234.1,107.6V93.9c0-8.8,3.4-16.3,10.3-22.7c6.9-6.3,15.2-9.5,24.9-9.5c9.1,0,16.9,2.9,23.4,8.6
				c6.5,5.8,9.7,13,9.7,21.7c0,3.2-0.4,5.8-1.2,7.9c-0.8,2.1-2,3.5-3.7,4.4c-1.7,0.8-3.2,1.4-4.6,1.6c-1.4,0.2-3.2,0.3-5.5,0.3
				h-32.6v2.4c0,4.6,1.7,8.3,5.1,11.2c3.4,2.8,8,4.3,13.7,4.3c4.1,0,8.1-1,12-3.1c4-2,6.5-3.1,7.7-3.1c2.2,0,4.1,1,5.6,3.1
				c1.5,2.1,2.2,4.1,2.2,6c0,3-2.7,6-8.1,8.9c-5.4,2.9-12.1,4.4-20.2,4.4c-11.5,0-20.8-3-28-9.1
				C237.7,125.4,234.1,117.4,234.1,107.6z M246,40.1c0-2.8,1.2-4.8,3.5-5.9l16.7-9c0.9-0.5,1.8-0.8,2.7-0.8c0.7,0,1.7,0.3,2.7,0.8
				l16.7,8.8c2.2,1.4,3.4,3.5,3.4,6.3c0,1.6-0.4,3.1-1.3,4.3c-0.9,1.3-1.9,1.9-3.2,1.9c-0.5,0-1.1-0.2-1.6-0.5l-16.7-9l-16.7,9
				c-0.6,0.3-1.2,0.5-1.8,0.5c-1.3,0-2.4-0.6-3.2-1.9C246.4,43.3,246,41.8,246,40.1z M254.8,94.1h23.5c1.7,0,2.9-0.3,3.6-0.8
				c0.7-0.5,1-1.6,1-3.2c0-3.5-1.4-6.4-4.1-8.6c-2.7-2.2-6.1-3.3-10-3.3c-3.8,0-7,1.1-9.8,3.2c-2.8,2.2-4.2,5-4.2,8.5V94.1z"/>
		</g>
		<g class="st0">
			<path class="st1" d="M11.1,187.1v-28.4c0-0.9,0.4-1.6,1.3-2.1c0.8-0.5,2-0.8,3.3-0.8c1.2,0,2.1,0.3,2.9,0.8s1.2,1.2,1.2,2.1v2.2
				c2.1-3.7,5.2-5.5,9.5-5.5c2,0,3.8,0.7,5.4,2c1.6,1.3,2.8,3.1,3.6,5.3c1.2-2.4,2.8-4.2,4.7-5.4c1.9-1.2,4-1.9,6.2-1.9
				c3.5,0,6.5,1.3,9,4c2.5,2.6,3.8,6.2,3.8,10.7v17.1c0,0.7-0.5,1.4-1.4,2s-2,0.9-3.3,0.9c-1.2,0-2.3-0.3-3.2-0.9
				c-0.9-0.6-1.4-1.3-1.4-2v-17c0-2-0.6-3.6-1.7-4.8c-1.2-1.2-2.5-1.8-4.1-1.8c-1.5,0-2.9,0.6-4,1.8c-1.1,1.2-1.7,2.7-1.7,4.7v17.2
				c0,1-0.5,1.7-1.4,2.2c-0.9,0.5-2,0.7-3.3,0.7c-1.2,0-2.3-0.3-3.2-0.8c-0.9-0.5-1.4-1.2-1.4-2.1v-17.1c0-1.9-0.6-3.5-1.8-4.7
				c-1.2-1.2-2.6-1.8-4.1-1.8c-1.5,0-2.9,0.6-4,1.7c-1.1,1.1-1.7,2.7-1.7,4.7v17c0,0.7-0.5,1.4-1.4,2s-2,0.9-3.3,0.9
				c-1.3,0-2.4-0.3-3.3-0.9C11.5,188.5,11.1,187.9,11.1,187.1z"/>
			<path class="st1" d="M67.6,175.9v-6.1c0-3.9,1.5-7.3,4.6-10.2c3.1-2.8,6.8-4.2,11.2-4.2c4.1,0,7.6,1.3,10.5,3.9
				c2.9,2.6,4.4,5.8,4.4,9.7c0,1.4-0.2,2.6-0.5,3.5c-0.4,0.9-0.9,1.6-1.7,2c-0.7,0.4-1.4,0.6-2.1,0.7c-0.6,0.1-1.4,0.1-2.4,0.1H76.9
				v1.1c0,2.1,0.8,3.7,2.3,5c1.5,1.3,3.6,1.9,6.1,1.9c1.8,0,3.6-0.5,5.4-1.4c1.8-0.9,2.9-1.4,3.5-1.4c1,0,1.8,0.5,2.5,1.4
				c0.7,0.9,1,1.8,1,2.7c0,1.3-1.2,2.7-3.6,4c-2.4,1.3-5.4,2-9,2c-5.1,0-9.3-1.4-12.6-4.1C69.2,183.9,67.6,180.4,67.6,175.9z
				 M76.9,169.9h10.5c0.8,0,1.3-0.1,1.6-0.4c0.3-0.2,0.5-0.7,0.5-1.4c0-1.6-0.6-2.8-1.8-3.8c-1.2-1-2.7-1.5-4.5-1.5
				c-1.7,0-3.1,0.5-4.4,1.4c-1.2,1-1.9,2.2-1.9,3.8V169.9z"/>
			<path class="st1" d="M103.4,176.1v-17.3c0-0.7,0.5-1.4,1.4-2s2-0.9,3.3-0.9c1.2,0,2.3,0.3,3.2,0.9c0.9,0.6,1.4,1.3,1.4,2V176
				c0,1.7,0.6,3.2,1.9,4.5c1.2,1.3,2.7,2,4.5,2c1.7,0,3.2-0.7,4.4-2s1.8-2.8,1.8-4.5v-17.3c0-0.8,0.5-1.4,1.4-2
				c0.9-0.6,2-0.9,3.3-0.9c1.3,0,2.4,0.3,3.3,0.9c0.9,0.6,1.3,1.2,1.3,2v17.4c0,3.9-1.5,7.3-4.6,10.2c-3.1,2.9-6.7,4.4-10.9,4.4
				c-4.2,0-7.9-1.5-11-4.4C105,183.4,103.4,180,103.4,176.1z"/>
			<path class="st1" d="M154.7,175.9v-5.8c0-4.4,1.3-8,3.9-10.7c2.6-2.7,6.5-4.1,11.7-4.1c3.3,0,6,0.6,8.2,1.7
				c2.2,1.2,3.3,2.4,3.3,3.9c0,1-0.4,2-1.1,3c-0.7,1-1.6,1.5-2.6,1.5c-0.3,0-1.1-0.3-2.6-1c-1.4-0.6-2.9-1-4.6-1c-4.7,0-7,2.2-7,6.6
				v5.7c0,4.4,2.4,6.6,7.1,6.6c1.6,0,3.1-0.3,4.5-1c1.4-0.7,2.3-1,2.7-1c1.2,0,2.1,0.5,2.8,1.4c0.7,1,1.1,1.9,1.1,3
				c0,1.5-1.2,2.8-3.5,4.1c-2.3,1.2-5.1,1.8-8.4,1.8c-5.2,0-9.1-1.3-11.7-4C156,184,154.7,180.4,154.7,175.9z"/>
			<path class="st1" d="M185.1,180.8c0-3.8,1.4-6.4,4.3-8c2.9-1.5,7-2.3,12.5-2.3h3v-1c0-1.8-0.5-3.4-1.5-4.8c-1-1.4-2.6-2-4.8-2
				s-4,0.4-5.5,1.2c-1.5,0.8-2.4,1.2-2.7,1.2c-1,0-1.7-0.5-2.3-1.4c-0.6-1-0.9-2-0.9-3.2c0-1.4,1.2-2.6,3.7-3.6
				c2.5-1,5.1-1.5,7.8-1.5c5.2,0,9.1,1.3,11.7,4c2.5,2.7,3.8,6,3.8,10v17.6c0,0.8-0.4,1.5-1.3,2.1c-0.9,0.6-1.9,0.9-3.2,0.9
				c-1.2,0-2.2-0.3-3-0.9c-0.8-0.6-1.2-1.4-1.2-2.2v-2.2c-3.3,4-7,6-10.9,6c-2.7,0-5-0.8-6.7-2.5C186,186.5,185.1,184,185.1,180.8z
				 M194.4,179.7c0,1.2,0.3,2.2,1,2.8c0.7,0.6,1.6,0.9,2.8,0.9c1.5,0,3-0.7,4.5-2c1.4-1.4,2.2-2.9,2.2-4.5v-1.4h-1.1
				c-2.9,0-5.2,0.3-6.9,0.9C195.2,176.8,194.4,177.9,194.4,179.7z"/>
			<path class="st1" d="M221,187.1v-28.4c0-0.9,0.4-1.6,1.3-2.1c0.8-0.5,1.9-0.8,3.3-0.8c1.2,0,2.2,0.3,3,0.8
				c0.8,0.5,1.2,1.2,1.2,2.1v3c0.8-1.7,2-3.2,3.6-4.4c1.6-1.3,3.4-1.9,5.3-1.9h2.2c0.9,0,1.6,0.4,2.3,1.2c0.7,0.8,1,1.8,1,2.8
				c0,1.1-0.3,2.1-1,2.9c-0.7,0.8-1.5,1.2-2.3,1.2h-2.2c-2.2,0-4.1,1-5.8,2.9c-1.7,2-2.5,4.5-2.5,7.7v12.9c0,0.7-0.5,1.4-1.4,2
				c-1,0.6-2.1,0.9-3.3,0.9c-1.3,0-2.4-0.3-3.2-0.9C221.5,188.5,221,187.9,221,187.1z"/>
		</g>
		<g class="st0">
			<path class="st1" d="M248.2,187.1v-28.4c0-0.9,0.4-1.6,1.3-2.1c0.8-0.5,1.9-0.8,3.3-0.8c1.2,0,2.2,0.3,3,0.8s1.2,1.2,1.2,2.1v3
				c0.8-1.7,2-3.2,3.6-4.4s3.4-1.9,5.3-1.9h2.2c0.9,0,1.6,0.4,2.3,1.2c0.7,0.8,1,1.8,1,2.8c0,1.1-0.3,2.1-1,2.9
				c-0.7,0.8-1.5,1.2-2.3,1.2h-2.2c-2.2,0-4.1,1-5.8,2.9c-1.7,2-2.5,4.5-2.5,7.7v12.9c0,0.7-0.5,1.4-1.4,2c-1,0.6-2.1,0.9-3.3,0.9
				c-1.3,0-2.4-0.3-3.2-0.9C248.6,188.5,248.2,187.9,248.2,187.1z"/>
		</g>
		<g class="st0">
			<path class="st1" d="M273.3,175.9V170c0-3.9,1.5-7.4,4.6-10.3c3.1-2.9,6.7-4.4,11-4.4c4.2,0,7.8,1.4,10.9,4.3
				c3.1,2.9,4.7,6.3,4.7,10.3v5.9c0,3.9-1.6,7.3-4.7,10.3c-3.1,3-6.8,4.5-10.9,4.5c-4.2,0-7.8-1.5-10.9-4.5
				C274.9,183.3,273.3,179.8,273.3,175.9z M282.6,175.9c0,1.7,0.6,3.2,1.9,4.6c1.2,1.3,2.7,2,4.5,2c1.7,0,3.2-0.7,4.4-2
				c1.3-1.3,1.9-2.9,1.9-4.6v-5.9c0-1.6-0.6-3.1-1.9-4.4c-1.3-1.3-2.7-2-4.4-2c-1.7,0-3.2,0.7-4.5,2s-1.9,2.8-1.9,4.5V175.9z"/>
		</g>
	</g>
</g>
</svg>
