<svg xmlns="http://www.w3.org/2000/svg" viewBox="0 0 100.19 128.74"><defs><style>.cls-1,.cls-3{fill:none;}.cls-2{fill:#5bd7b9;}.cls-3{stroke:#5bd7b9;stroke-miterlimit:10;}</style></defs><title>Asset 2</title><g id="Layer_2" data-name="Layer 2"><g id="Layer_1-2" data-name="Layer 1"><path class="cls-1" d="M50.09,10C28,10,10,27.58,10,49.16A66.51,66.51,0,0,0,16.94,78H83.24a67.1,67.1,0,0,0,6.92-28.89C90.17,27.58,72.19,10,50.09,10Z"/><path class="cls-2" d="M50,117.07C63.54,107,75.93,93.5,83.31,78.16L17,77.94C26.54,98,43.44,112.09,50,117.07Z"/><path class="cls-2" d="M10,49.16C10,27.58,28,10,50.09,10S90.17,27.58,90.17,49.16A67.1,67.1,0,0,1,83.24,78h11a75.13,75.13,0,0,0,5.94-28.89C100.19,22.05,77.71,0,50.09,0S0,22.05,0,49.16A75.13,75.13,0,0,0,5.94,78h11A66.51,66.51,0,0,1,10,49.16Z"/><path class="cls-3" d="M47.35,127.42a5,5,0,0,0,5.49,0,127.2,127.2,0,0,0,23.57-21.24A103.79,103.79,0,0,0,94.25,78h-11c-7.33,15.37-19.68,28.93-33.15,39-6.61-5-23.55-19-33.16-39h-11a103.79,103.79,0,0,0,17.83,28.13A127.2,127.2,0,0,0,47.35,127.42Z"/><g id="time-to-leave"><path class="cls-2" d="M66,51.22a3.59,3.59,0,0,0-3.34-2.39H36.36A3.37,3.37,0,0,0,33,51.22L28,65.55V84.66A2.39,2.39,0,0,0,30.39,87h2.44a2.39,2.39,0,0,0,2.39-2.39V82.27H63.88v2.39A2.39,2.39,0,0,0,66.27,87h2.34A2.39,2.39,0,0,0,71,84.66V65.55ZM36.36,75.14a3.58,3.58,0,1,1,3.58-3.58A3.67,3.67,0,0,1,36.36,75.14Zm26.28,0a3.58,3.58,0,1,1,3.58-3.58A3.67,3.67,0,0,1,62.64,75.14Zm-29.9-12,3.59-10.77H62.67l3.59,10.77Z"/></g></g></g></svg>