<?xml version="1.0" encoding="iso-8859-1"?>
<!-- Generator: Adobe Illustrator 19.0.0, SVG Export Plug-In . SVG Version: 6.00 Build 0)  -->
<svg version="1.1" id="Layer_1" xmlns="http://www.w3.org/2000/svg" xmlns:xlink="http://www.w3.org/1999/xlink" x="0px" y="0px"
	 viewBox="0 0 512 512" style="enable-background:new 0 0 512 512;" xml:space="preserve">
<g>
	<polygon style="fill:#363E51;" points="308.966,459.034 203.034,459.034 220.69,308.966 291.31,308.966 	"/>
	<path style="fill:#556080;" d="M414.897,158.897c0,87.755-71.142,158.897-158.897,158.897S97.103,246.652,97.103,158.897
		S168.245,0,256,0S414.897,71.142,414.897,158.897"/>
	<path style="fill:#90BAE1;" d="M335.448,158.897c0,43.882-35.566,79.448-79.448,79.448s-79.448-35.566-79.448-79.448
		S212.118,79.448,256,79.448S335.448,115.015,335.448,158.897"/>
	<g>
		<path style="fill:#FFFFFF;" d="M300.138,185.379c-1.148,0-2.295-0.265-3.354-0.706c-1.059-0.441-2.03-1.059-2.913-1.854
			c-1.677-1.677-2.56-3.884-2.56-6.268c0-2.295,0.971-4.599,2.56-6.268c3.354-3.266,9.181-3.266,12.535,0
			c1.589,1.668,2.56,3.972,2.56,6.268c0,2.383-0.883,4.59-2.56,6.268c-0.883,0.794-1.854,1.412-2.913,1.854
			C302.433,185.114,301.286,185.379,300.138,185.379"/>
		<path style="fill:#FFFFFF;" d="M247.172,123.586c-1.148,0-2.295-0.265-3.354-0.706c-1.059-0.441-2.03-1.059-2.913-1.854
			c-0.794-0.892-1.412-1.854-1.854-2.913c-0.53-1.059-0.706-2.207-0.706-3.354c0-2.295,0.971-4.599,2.56-6.268
			c3.266-3.266,9.181-3.266,12.535,0c1.589,1.668,2.56,3.972,2.56,6.268c0,2.383-0.883,4.59-2.56,6.268
			c-0.883,0.794-1.854,1.412-2.913,1.854C249.468,123.321,248.32,123.586,247.172,123.586"/>
	</g>
	<path style="fill:#D75A4A;" d="M353.103,96.993c-1.148,0-2.295-0.265-3.354-0.706c-1.059-0.441-2.03-1.059-2.913-1.854
		c-0.794-0.892-1.412-1.854-1.854-2.913c-0.53-1.059-0.706-2.207-0.706-3.354c0-2.295,0.971-4.599,2.56-6.268
		c3.266-3.266,9.181-3.266,12.535,0c1.589,1.668,2.56,3.972,2.56,6.268c0,2.383-0.883,4.59-2.56,6.268
		c-0.883,0.794-1.854,1.412-2.913,1.854C355.399,96.728,354.251,96.993,353.103,96.993"/>
	<path style="fill:#FFFFFF;" d="M300.138,158.897c-4.873,0-8.828-3.955-8.828-8.828c0-14.354-8.086-26.483-17.655-26.483
		c-4.873,0-8.828-3.955-8.828-8.828s3.955-8.828,8.828-8.828c19.474,0,35.31,19.8,35.31,44.138
		C308.966,154.942,305.011,158.897,300.138,158.897"/>
	<path style="fill:#556080;" d="M397.241,512H114.759c0-29.255,23.711-52.966,52.966-52.966h176.552
		C373.53,459.034,397.241,482.745,397.241,512"/>
</g>
<g>
</g>
<g>
</g>
<g>
</g>
<g>
</g>
<g>
</g>
<g>
</g>
<g>
</g>
<g>
</g>
<g>
</g>
<g>
</g>
<g>
</g>
<g>
</g>
<g>
</g>
<g>
</g>
<g>
</g>
</svg>
